<svg width="2131" height="1936" xmlns="http://www.w3.org/2000/svg" version="1.1" enable-background="new 0 0 2131 1936" xml:space="preserve">
 <g>
  <title>Layer 1</title>
  <path fill="#003D85" d="m1986,1937c-612.70422,0 -1225.40851,0 -1838.75705,-0.33154c-40.64823,-8.03699 -74.28589,-27.1991 -101.46321,-57.37195c-22.18829,-24.63367 -37.47531,-52.95203 -43.16854,-85.98804c-0.20007,-1.16089 -1.05923,-2.20825 -1.6112,-3.30847c0,-596.33337 0,-1192.66669 0.49992,-1788.53134c0.49992,46.42386 0.49992,92.37906 0.49992,138.33427c0.79688,-0.47104 0.87992,-1.0558 1.07569,-1.60003c4.85216,-13.48902 8.748,-27.42571 14.78639,-40.36207c11.41665,-24.45849 28.09832,-45.00438 49.44723,-61.80843c20.47363,-16.11511 43.10594,-27.41018 68.53762,-33.11604c0.81979,-0.18393 1.43999,-1.25751 2.15323,-1.91636c619.0376,0 1238.07519,0 1857.51611,0.38882c5.35877,1.9283 10.34864,3.36603 15.26429,5.02376c31.86987,10.74794 58.96789,28.56278 80.61926,54.46463c18.92383,22.63877 32.59009,47.89084 38.68579,76.97649c0.17041,0.81346 1.25586,1.43518 1.91455,2.1463c0,546.37091 0,1092.74182 -0.36914,1639.69189c-1.44531,6.28589 -2.45288,12.00684 -3.6084,17.69764c-13.60205,66.97632 -70.95312,124.27246 -137.75281,137.72216c-1.4895,0.29969 -2.84936,1.24451 -4.26965,1.88831m-1900.83454,-1308.50006c0.10973,42.16077 0.28602,84.32141 0.30585,126.48224c0.01324,28.15985 -0.30225,56.31988 -0.28786,84.47973c0.06993,136.81977 0.27061,273.63953 0.28777,410.45923c0.01206,96.15552 -0.20744,192.31116 -0.30198,288.46668c-0.07373,74.99438 -0.07429,149.98889 -0.18409,224.98327c-0.06949,47.46167 32.61644,77.2948 66.59209,87.71399c14.07091,4.31519 28.66528,3.83509 43.11453,3.84388c45.81421,0.02783 91.62851,-0.34656 137.44296,-0.3949c34.32184,-0.03626 68.64396,0.28198 102.96595,0.28711c506.63961,0.07495 1013.2792,0.12024 1519.91885,0.18701c31.10779,0.00403 55.77356,-13.09204 75.44812,-36.63074c15.45337,-18.48877 20.57483,-40.2229 20.37048,-63.69592c-0.29028,-33.31604 -0.71362,-66.63208 -0.80249,-99.94873c-0.13598,-50.99256 -0.05664,-101.98572 -0.031,-152.97864c0.03613,-70.99475 0.14111,-141.9895 0.15112,-212.98425c0.00684,-47.32886 -0.1062,-94.65784 -0.1543,-141.9867c-0.06127,-60.32849 -0.16137,-120.65698 -0.15454,-180.98541c0.0105,-91.49347 0.05005,-182.98706 0.16944,-274.48047c0.08227,-63.15472 0.32226,-126.30932 0.48608,-189.46396c0.01758,-6.85101 -0.00073,-6.85501 -6.70581,-6.85312c-194.15564,0.05457 -388.31116,0.11579 -582.4668,0.16407c-456.30493,0.11343 -912.60992,0.22073 -1368.91487,0.33081c-1.49991,0.00036 -3.00169,-0.0383 -4.49897,0.02588c-0.80201,0.03442 -1.59628,0.24966 -2.75053,0.44302c0,43.93839 0,87.73709 0,132.53592m1565.33454,-215.90885c130.6521,0.08567 261.30432,0.17194 391.95642,0.25522c6.70691,0.00428 7.0863,-0.44912 7.10877,-6.91015c0.05175,-14.81232 0.3125,-29.62479 0.2583,-44.43634c-0.23023,-62.983 0.12622,-125.97849 -1.07837,-188.94362c-0.72437,-37.84825 -19.50354,-65.71156 -53.33875,-82.86894c-16.4884,-8.36103 -34.65075,-9.33096 -52.65893,-9.4211c-28.81336,-0.14421 -57.63038,0.65697 -86.44617,0.69572c-106.823,0.14366 -213.64636,0.16396 -320.46948,0.17963c-54.82752,0.00804 -109.65503,-0.12007 -164.48255,-0.13612c-84.99292,-0.02489 -169.98596,-0.01929 -254.97888,0.00109c-25.82983,0.00618 -51.65967,0.11459 -77.4895,0.15715c-55.81,0.09199 -111.62006,0.2597 -167.42999,0.22442c-35.30811,-0.02231 -70.61664,-0.56771 -105.92408,-0.49128c-38.98297,0.08439 -77.96557,0.93145 -116.9472,0.85656c-39.97577,-0.0768 -79.9491,-1.06842 -119.92548,-1.27713c-28.81958,-0.15046 -57.64294,0.53652 -86.4638,0.47365c-44.14884,-0.09629 -88.29669,-0.66417 -132.4455,-0.74624c-28.31704,-0.05264 -56.63481,0.45154 -84.95276,0.62158c-15.82631,0.09503 -31.65417,-0.06268 -47.48047,0.0347c-30.17149,0.18564 -54.86815,11.98494 -74.04515,35.27185c-14.29264,17.35576 -18.8534,37.95101 -19.02627,59.71535c-0.17197,21.65001 0.4202,43.3053 0.59224,64.95896c0.41564,52.31413 0.78424,104.62864 1.16327,156.94307c0.03344,4.6144 0.00443,9.22924 0.00443,14.84133c521.69607,0 1042.59804,0 1564.4999,0.00064z" id="svg_1"/>
  <path fill="#FFFFFF" d="m85.16546,627.99988c0,-44.29877 0,-88.09747 0,-132.03586c1.15425,-0.19336 1.94852,-0.4086 2.75053,-0.44302c1.49728,-0.06418 2.99906,-0.02552 4.49897,-0.02588c456.30495,-0.11008 912.60994,-0.21738 1368.91487,-0.33081c194.15564,-0.04828 388.31116,-0.1095 582.4668,-0.16407c6.70508,-0.00189 6.72339,0.00211 6.70581,6.85312c-0.16382,63.15464 -0.40381,126.30924 -0.48608,189.46396c-0.11939,91.49341 -0.15894,182.987 -0.16944,274.48047c-0.00683,60.32843 0.09327,120.65692 0.15454,180.98541c0.0481,47.32886 0.16114,94.65784 0.1543,141.9867c-0.01001,70.99475 -0.11499,141.9895 -0.15112,212.98425c-0.02564,50.99292 -0.10498,101.98608 0.031,152.97864c0.08887,33.31665 0.51221,66.63269 0.80249,99.94873c0.20435,23.47302 -4.91711,45.20715 -20.37048,63.69592c-19.67456,23.5387 -44.34033,36.63477 -75.44812,36.63074c-506.63965,-0.06677 -1013.27924,-0.11206 -1519.91885,-0.18701c-34.32199,-0.00513 -68.64411,-0.32337 -102.96595,-0.28711c-45.81445,0.04834 -91.62875,0.42273 -137.44296,0.3949c-14.44925,-0.00879 -29.04362,0.47131 -43.11453,-3.84388c-33.97565,-10.41919 -66.66158,-40.25232 -66.59209,-87.71399c0.1098,-74.99438 0.11036,-149.98889 0.18409,-224.98327c0.09454,-96.15552 0.31404,-192.31116 0.30198,-288.46668c-0.01716,-136.8197 -0.21784,-273.63946 -0.28777,-410.45923c-0.01439,-28.15985 0.3011,-56.31988 0.28786,-84.47973c-0.01983,-42.16083 -0.19612,-84.32147 -0.30585,-126.9823m908.9726,343.33203c-69.13824,-38.62824 -138.30115,-77.21259 -207.40094,-115.90942c-22.93774,-12.84546 -45.61212,-26.16309 -68.60846,-38.90107c-10.57184,-5.85571 -21.98199,-9.93011 -34.31451,-9.27807c-34.48273,1.82299 -60.54724,28.06982 -61.87152,62.56775c-0.64441,16.78802 -0.41413,33.61364 -0.40552,50.42211c0.07709,150.64228 0.19305,301.28449 0.29693,451.9267c0.0055,7.98535 -0.2019,15.97705 0.04127,23.95508c1.58966,52.14966 56.83489,78.55261 97.00097,54.94238c55.47986,-32.6123 112.63422,-62.36779 168.93067,-93.60058c88.02551,-48.83557 175.94659,-97.8595 263.87908,-146.86255c16.70899,-9.31165 33.36353,-18.7301 49.84888,-28.42957c7.86243,-4.6261 13.80567,-11.33398 18.43152,-19.30115c13.42871,-23.1289 6.69788,-61.46215 -21.18689,-77.3822c-13.72229,-7.83435 -27.63928,-15.32666 -41.44031,-23.0238c-54.20056,-30.229 -108.39013,-60.47791 -163.20117,-91.12561m863.3645,773.74915c15.51819,-9.53406 21.01563,-23.86121 19.37574,-41.34266c-1.92237,-20.49292 -16.92676,-36.29406 -37.35193,-37.80652c-12.52466,-0.92749 -25.24939,0.00318 -37.82898,0.88648c-13.94214,0.979 -23.46826,9.04468 -28.88184,21.50208c-2.60425,5.9923 -4.52063,12.61376 -5.09814,19.09729c-2.05457,23.06787 11.84863,41.60046 33.14367,43.28259c13.20472,1.04284 26.61365,0.29516 39.87378,-0.54712c5.45484,-0.34656 10.75977,-3.05457 16.7677,-5.07214m-1502.17535,-4.25391c10.95642,-11.26245 15.4299,-24.6604 12.65048,-40.15601c-3.03311,-16.91015 -15.30691,-30.64636 -30.30084,-33.27575c-15.00226,-2.6305 -30.17499,-2.67627 -45.14533,0.4563c-19.76397,4.13574 -31.32403,16.78198 -34.0996,36.62854c-3.17183,22.67993 10.87017,42.93664 33.45852,45.53942c14.08106,1.62268 28.52002,0.39075 42.7883,0.03565c7.72052,-0.19214 14.52051,-3.29029 20.64847,-9.22815m464.26526,-47.73438c-4.95313,-14.56884 -15.14618,-23.10986 -30.1673,-25.82446c-12.7008,-2.29529 -25.53631,-2.56616 -38.18841,-0.08325c-18.80054,3.6897 -32.12671,13.89184 -36.74549,33.38293c-4.44049,18.73877 5.03046,48.70777 34.84302,50.38514c14.51843,0.81677 29.21558,-0.09168 43.73962,-1.31458c10.43726,-0.87878 17.95758,-7.41003 22.88251,-16.60474c6.6922,-12.49377 7.51239,-25.63269 3.63605,-39.94104m903.53168,3.34168c-3.68616,-15.45691 -13.55835,-24.7135 -28.77967,-28.43555c-13.97375,-3.41699 -27.99475,-2.91919 -42.01916,-0.14783c-24.81092,4.90284 -37.86072,21.77271 -35.24256,46.61915c1.7843,16.93371 10.63208,36.35424 36.849,37.18933c13.06909,0.41626 26.28846,-0.2937 39.25782,-1.93372c6.06408,-0.76672 12.54736,-3.89343 17.36462,-7.77991c14.45776,-11.66418 16.61218,-27.49023 12.56995,-45.51147m-1276.01124,-28.97888c-21.65948,4.93689 -33.9891,18.04553 -35.39565,38.73828c-1.23093,18.1095 6.64981,40.73352 32.80514,43.77282c14.06754,1.63477 28.51733,0.87256 42.72122,-0.00134c5.62998,-0.34619 11.7497,-2.93945 16.45484,-6.21936c14.79513,-10.31299 18.1025,-25.58874 15.8395,-42.44104c-2.25061,-16.76013 -12.18676,-27.29687 -28.1091,-32.13464c-14.2789,-4.3385 -28.86816,-4.21826 -44.31595,-1.71472m873.14881,61.65429c5.53577,11.93213 14.92261,18.71765 27.76501,21.14283c14.43018,2.72521 28.87122,1.49548 43.20642,-0.20777c5.40918,-0.6427 11.06763,-2.85022 15.68738,-5.79516c14.57825,-9.29358 18.35193,-23.6969 16.97913,-39.95484c-1.73731,-20.57739 -13.32959,-34.13879 -33.62866,-36.65881c-12.57459,-1.56079 -25.65479,-1.41406 -38.24793,0.11206c-17.36438,2.10425 -29.81177,11.74805 -34.51562,29.4342c-2.82849,10.63465 -1.92444,21.09497 2.75427,31.92749m246.81714,-43.63086c-6.8999,-11.39587 -16.64917,-19.02697 -30.19873,-19.234c-13.07312,-0.19959 -26.24182,0.59252 -39.23511,2.09851c-10.40991,1.20666 -18.29089,7.45202 -23.89307,16.40466c-4.42614,7.07324 -6.77051,14.81775 -7.16784,23.07056c-0.91004,18.89843 7.29406,41.55261 35.93249,43.2362c10.58984,0.62244 21.26709,0.3147 31.87842,-0.156c8.89453,-0.39466 17.39978,-2.58191 24.68762,-8.24915c15.75171,-12.2489 20.16406,-38.28711 7.99622,-57.17078m-385.12036,60.17127c3.3811,1.35095 6.72302,3.74658 10.1499,3.87475c16.09155,0.60193 32.38464,2.16907 48.26831,0.38526c20.49365,-2.30127 31.98584,-17.56506 33.05945,-39.90784c0.96582,-20.09509 -14.43079,-42.07251 -36.56519,-43.0072c-10.76721,-0.45471 -21.58508,-0.2013 -32.36303,0.19275c-17.85999,0.65259 -31.83362,11.73071 -37.10853,28.93005c-5.72644,18.67115 -0.00598,38.74707 14.55909,49.53223m-162.63935,-14.66467c6.22943,12.32031 16.30097,19.59875 29.98651,20.01025c13.57898,0.40845 27.33484,0.23682 40.78028,-1.49194c19.06103,-2.45105 29.76696,-13.78357 32.45141,-32.56275c2.64698,-18.5155 -4.85534,-43.37671 -32.24792,-48.81262c-13.50305,-2.67956 -27.08948,-2.80456 -40.68457,-0.2456c-16.95557,3.19152 -27.56995,13.46801 -32.31696,29.63073c-3.21454,10.94507 -2.70141,22.04798 2.03125,33.47193m-367.13549,13.80651c14.59796,-10.24572 20.43731,-24.59985 17.25915,-41.71276c-3.35828,-18.08301 -13.0227,-32.22693 -32.42346,-35.39307c-11.18451,-1.8252 -22.87329,-1.14148 -34.30646,-0.74963c-29.97626,1.02697 -42.51117,29.09411 -39.8053,49.12292c2.67707,19.81555 15.13269,33.05969 34.87635,34.97644c8.25396,0.80127 16.61096,0.80493 24.91748,0.73572c10.05163,-0.08399 19.90832,-1.45044 29.48224,-6.97962m236.87231,-74.45617c-17.41815,9.05945 -24.9668,23.97229 -24.07916,42.97082c0.78076,16.71265 9.15283,35.17835 33.72387,37.22156c12.54999,1.04358 25.27564,0.58044 37.88959,0.04163c8.83862,-0.37757 16.78156,-3.88453 23.24908,-10.24549c10.63172,-10.4563 13.24311,-23.55127 11.98603,-37.67248c-1.51685,-17.03809 -14.09833,-31.8407 -30.67243,-35.1261c-17.20282,-3.40991 -34.44,-2.25549 -52.09698,2.81006z" id="svg_6"/>
  <path fill="#43CFFE" d="m1650,412.59076c-521.40186,-0.00031 -1042.30383,-0.00031 -1563.9999,-0.00031c0,-5.61209 0.02901,-10.22693 -0.00443,-14.84133c-0.37903,-52.31443 -0.74763,-104.62894 -1.16327,-156.94307c-0.17204,-21.65366 -0.76421,-43.30895 -0.59224,-64.95896c0.17287,-21.76434 4.73363,-42.35959 19.02627,-59.71535c19.177,-23.28691 43.87366,-35.08621 74.04515,-35.27185c15.8263,-0.09738 31.65416,0.06033 47.48047,-0.0347c28.31795,-0.17004 56.63572,-0.67422 84.95276,-0.62158c44.14881,0.08207 88.29666,0.64995 132.4455,0.74624c28.82086,0.06287 57.64422,-0.62411 86.4638,-0.47365c39.97638,0.20871 79.94971,1.20033 119.92548,1.27713c38.98163,0.07489 77.96423,-0.77217 116.9472,-0.85656c35.30744,-0.07643 70.61597,0.46897 105.92408,0.49128c55.80993,0.03528 111.61999,-0.13243 167.42999,-0.22442c25.82983,-0.04256 51.65967,-0.15097 77.4895,-0.15715c84.99292,-0.02038 169.98596,-0.02598 254.97888,-0.00109c54.82752,0.01605 109.65503,0.14416 164.48255,0.13612c106.82312,-0.01567 213.64648,-0.03597 320.46948,-0.17963c28.81579,-0.03875 57.63281,-0.83993 86.44617,-0.69572c18.00818,0.09014 36.17053,1.06007 52.65893,9.4211c33.83521,17.15738 52.61438,45.02069 53.33875,82.86894c1.20459,62.96513 0.84814,125.96062 1.07837,188.94362c0.0542,14.81155 -0.20655,29.62402 -0.2583,44.43634c-0.02247,6.46103 -0.40186,6.91443 -7.10877,6.91015c-130.6521,-0.08328 -261.30432,-0.16955 -392.45642,-0.25555m-154.5,-121.98596c81.65808,0.08267 163.31604,0.20389 244.97412,0.23138c39.66101,0.01334 79.32202,-0.11551 118.98279,-0.2551c9.82422,-0.03457 19.66113,-0.09915 29.46802,-0.61227c16.8695,-0.88272 28.92993,-10.06699 32.51635,-24.70865c6.02503,-24.59759 -10.91052,-50.52502 -37.51928,-50.31524c-32.81018,0.25863 -65.62525,0.01313 -98.43775,-0.11657c-44.64819,-0.17649 -89.2959,-0.6004 -133.94409,-0.64479c-62.3258,-0.06195 -124.65185,0.09792 -186.97778,0.22077c-51.98889,0.10246 -103.9773,0.32597 -155.96619,0.42645c-51.82593,0.10019 -103.65234,0.21831 -155.47803,0.12428c-28.48632,-0.05168 -56.97168,-0.73721 -85.45764,-0.7476c-28.74438,-0.01047 -45.46264,17.54249 -42.70373,44.23807c1.76794,17.10684 16.10693,30.87747 33.17456,31.68499c8.14685,0.3855 16.30823,0.72834 24.46057,0.67932c28.65283,-0.17221 57.30481,-0.76995 85.95691,-0.75451c60.98706,0.0329 121.97388,0.40866 182.96094,0.53024c47.66333,0.09503 95.32678,0.01874 143.99023,0.01923m-734.81732,-145.46578c-46.65283,23.39546 -64.65998,73.31999 -54.8432,115.11214c9.80578,41.74499 36.94928,69.16122 78.86719,78.89505c41.4671,9.62912 76.32177,-4.34555 103.22784,-36.75436c18.12555,-21.83252 27.24737,-47.47693 23.68158,-76.09824c-8.51764,-68.36815 -83.08795,-115.70249 -150.93341,-81.15459m-541.63422,178.34328c23.33791,16.2735 48.88309,22.74231 77.13089,17.56009c56.66406,-10.39533 97.34027,-71.62659 82.97623,-126.85629c-10.54361,-40.54027 -37.15219,-67.25577 -77.74466,-77.23955c-40.10223,-9.86319 -74.36133,3.14776 -101.47182,33.84024c-14.83171,16.79134 -24.87344,36.36499 -25.8892,59.30406c-1.71637,38.76016 14.47671,69.20734 44.99856,93.39145m326.34949,18.51654c70.85419,-1.97504 109.32928,-71.56915 99.76117,-121.30103c-9.8725,-51.31408 -62.28528,-98.31079 -122.34418,-84.92924c-55.05762,12.2672 -91.29663,62.73344 -82.60104,118.22972c8.09155,51.64099 51.09009,87.94647 105.18405,88.00055z" id="svg_7"/>
  <path fill="#0099FD" d="m994.44678,971.53503c54.50232,30.44458 108.69189,60.69349 162.89245,90.92249c13.80103,7.69714 27.71802,15.18945 41.44031,23.0238c27.88477,15.92005 34.6156,54.2533 21.18689,77.3822c-4.62585,7.96717 -10.56909,14.67505 -18.43152,19.30115c-16.48535,9.69947 -33.13989,19.11792 -49.84888,28.42957c-87.93249,49.00305 -175.85357,98.02698 -263.87908,146.86255c-56.29645,31.23279 -113.45081,60.98828 -168.93067,93.60058c-40.16608,23.61023 -95.41131,-2.79272 -97.00097,-54.94238c-0.24317,-7.97803 -0.03577,-15.96973 -0.04127,-23.95508c-0.10388,-150.64221 -0.21984,-301.28442 -0.29693,-451.9267c-0.00861,-16.80847 -0.23889,-33.63409 0.40552,-50.42211c1.32428,-34.49793 27.38879,-60.74476 61.87152,-62.56775c12.33252,-0.65204 23.74267,3.42236 34.31451,9.27807c22.99634,12.73798 45.67072,26.05561 68.60846,38.90107c69.09979,38.69683 138.2627,77.28118 207.70966,116.11254z" id="svg_8"/>
  <path fill="#013E85" d="m1857.18518,1745.27283c-5.69055,1.8258 -10.99548,4.53381 -16.45032,4.88037c-13.26013,0.84228 -26.66906,1.58996 -39.87378,0.54712c-21.29504,-1.68213 -35.19824,-20.21472 -33.14367,-43.28259c0.57751,-6.48353 2.49389,-13.10499 5.09814,-19.09729c5.41358,-12.4574 14.9397,-20.52308 28.88184,-21.50208c12.57959,-0.8833 25.30432,-1.81397 37.82898,-0.88648c20.42517,1.51246 35.42956,17.3136 37.35193,37.80652c1.63989,17.48145 -3.85755,31.8086 -19.69312,41.53443z" id="svg_9"/>
  <path fill="#013E86" d="m355.07394,1741.07983c-5.87469,5.68518 -12.67468,8.78333 -20.3952,8.97547c-14.26828,0.3551 -28.70724,1.58703 -42.7883,-0.03565c-22.58835,-2.60278 -36.63035,-22.85949 -33.45852,-45.53942c2.77557,-19.84656 14.33563,-32.4928 34.0996,-36.62854c14.97034,-3.13257 30.14307,-3.0868 45.14533,-0.4563c14.99393,2.62939 27.26773,16.3656 30.30084,33.27575c2.77942,15.49561 -1.69406,28.89356 -12.90375,40.40869z" id="svg_10"/>
  <path fill="#013E85" d="m819.72467,1693.4718c3.74414,13.92932 2.92395,27.06824 -3.76825,39.56201c-4.92493,9.19471 -12.44525,15.72596 -22.88251,16.60474c-14.52404,1.2229 -29.22119,2.13135 -43.73962,1.31458c-29.81256,-1.67737 -39.28351,-31.64637 -34.84302,-50.38514c4.61878,-19.49109 17.94495,-29.69323 36.74549,-33.38293c12.6521,-2.48291 25.48761,-2.21204 38.18841,0.08325c15.02112,2.7146 25.21417,11.25562 30.2995,26.20349z" id="svg_11"/>
  <path fill="#013E85" d="m1723.24634,1696.82935c3.92004,17.62634 1.76562,33.45239 -12.69214,45.11657c-4.81726,3.88648 -11.30054,7.01319 -17.36462,7.77991c-12.96936,1.64002 -26.18873,2.34998 -39.25782,1.93372c-26.21692,-0.83509 -35.0647,-20.25562 -36.849,-37.18933c-2.61816,-24.84644 10.43164,-41.71631 35.24256,-46.61915c14.02441,-2.77136 28.04541,-3.26916 42.01916,0.14783c15.22132,3.72205 25.09351,12.97864 28.90186,28.83045z" id="svg_12"/>
  <path fill="#013E85" d="m447.52106,1667.34058c15.03964,-2.38855 29.6289,-2.50879 43.9078,1.82971c15.92234,4.83777 25.85849,15.37451 28.1091,32.13464c2.263,16.8523 -1.04437,32.12805 -15.8395,42.44104c-4.70514,3.27991 -10.82486,5.87317 -16.45484,6.21936c-14.20389,0.8739 -28.65368,1.63611 -42.72122,0.00134c-26.15533,-3.0393 -34.03607,-25.66332 -32.80514,-43.77282c1.40655,-20.69275 13.73617,-33.80139 35.8038,-38.85327z" id="svg_13"/>
  <path fill="#013E86" d="m1320.11706,1728.7561c-4.53405,-10.47876 -5.4381,-20.93908 -2.60961,-31.57373c4.70385,-17.68615 17.15124,-27.32995 34.51562,-29.4342c12.59314,-1.52612 25.67334,-1.67285 38.24793,-0.11206c20.29907,2.52002 31.89135,16.08142 33.62866,36.65881c1.3728,16.25794 -2.40088,30.66126 -16.97913,39.95484c-4.61975,2.94494 -10.2782,5.15246 -15.68738,5.79516c-14.3352,1.70325 -28.77624,2.93298 -43.20642,0.20777c-12.8424,-2.42518 -22.22924,-9.2107 -27.90967,-21.49659z" id="svg_14"/>
  <path fill="#013E85" d="m1567.28235,1685.78491c11.96435,18.57776 7.552,44.61597 -8.19971,56.86487c-7.28784,5.66724 -15.79309,7.85449 -24.68762,8.24915c-10.61133,0.4707 -21.28858,0.77844 -31.87842,0.156c-28.63843,-1.68359 -36.84253,-24.33777 -35.93249,-43.2362c0.39733,-8.25281 2.7417,-15.99732 7.16784,-23.07056c5.60218,-8.95264 13.48316,-15.198 23.89307,-16.40466c12.99329,-1.50599 26.16199,-2.2981 39.23511,-2.09851c13.54956,0.20703 23.29883,7.83813 30.40222,19.53991z" id="svg_15"/>
  <path fill="#013E85" d="m1181.67102,1745.4231c-14.27759,-10.55799 -19.99805,-30.63391 -14.27161,-49.30506c5.27491,-17.19934 19.24854,-28.27746 37.10853,-28.93005c10.77795,-0.39405 21.59582,-0.64746 32.36303,-0.19275c22.1344,0.93469 37.53101,22.91211 36.56519,43.0072c-1.07361,22.34278 -12.5658,37.60657 -33.05945,39.90784c-15.88367,1.78381 -32.17676,0.21667 -48.26831,-0.38526c-3.42688,-0.12817 -6.7688,-2.5238 -10.43738,-4.10192z" id="svg_16"/>
  <path fill="#013E86" d="m1019.17615,1730.63123c-4.58966,-11.06958 -5.10279,-22.17249 -1.88825,-33.11756c4.74701,-16.16272 15.36139,-26.43921 32.31696,-29.63073c13.59509,-2.55896 27.18152,-2.43396 40.68457,0.2456c27.39258,5.43591 34.8949,30.29712 32.24792,48.81262c-2.68445,18.77918 -13.39038,30.1117 -32.45141,32.56275c-13.44544,1.72876 -27.2013,1.90039 -40.78028,1.49194c-13.68554,-0.4115 -23.75708,-7.68994 -30.12951,-20.36462z" id="svg_17"/>
  <path fill="#013E86" d="m651.85645,1744.95703c-9.24671,5.36426 -19.1034,6.73071 -29.15503,6.8147c-8.30652,0.06921 -16.66352,0.06555 -24.91748,-0.73572c-19.74366,-1.91675 -32.19928,-15.16089 -34.87635,-34.97644c-2.70587,-20.02881 9.82904,-48.09595 39.8053,-49.12292c11.43317,-0.39185 23.12195,-1.07557 34.30646,0.74963c19.40076,3.16614 29.06518,17.31006 32.42346,35.39307c3.17816,17.11291 -2.66119,31.46704 -17.58636,41.87768z" id="svg_18"/>
  <path fill="#013E85" d="m889.41968,1670.198c17.29327,-4.92761 34.53045,-6.08203 51.73327,-2.67212c16.5741,3.2854 29.15558,18.08801 30.67243,35.1261c1.25708,14.12121 -1.35431,27.21618 -11.98603,37.67248c-6.46752,6.36096 -14.41046,9.86792 -23.24908,10.24549c-12.61395,0.53881 -25.3396,1.00195 -37.88959,-0.04163c-24.57104,-2.04321 -32.94311,-20.50891 -33.72387,-37.22156c-0.88764,-18.99853 6.66101,-33.91137 24.44287,-43.10876z" id="svg_19"/>
  <path fill="#FEFFFF" d="m1495,290.60449c-48.16345,-0.00018 -95.8269,0.07611 -143.49023,-0.01892c-60.98706,-0.12158 -121.97388,-0.49734 -182.96094,-0.53024c-28.6521,-0.01544 -57.30408,0.5823 -85.95691,0.75451c-8.15234,0.04902 -16.31372,-0.29382 -24.46057,-0.67932c-17.06763,-0.80752 -31.40662,-14.57815 -33.17456,-31.68499c-2.75891,-26.69558 13.95935,-44.24854 42.70373,-44.23807c28.48596,0.01039 56.97132,0.69592 85.45764,0.7476c51.82569,0.09403 103.6521,-0.02409 155.47803,-0.12428c51.98889,-0.10048 103.9773,-0.32399 155.96619,-0.42645c62.32593,-0.12285 124.65198,-0.28272 186.97778,-0.22077c44.64819,0.04439 89.2959,0.4683 133.94409,0.64479c32.8125,0.1297 65.62757,0.3752 98.43775,0.11657c26.60876,-0.20978 43.54431,25.71765 37.51928,50.31524c-3.58642,14.64166 -15.64685,23.82593 -32.51635,24.70865c-9.80689,0.51312 -19.6438,0.5777 -29.46802,0.61227c-39.66077,0.13959 -79.32178,0.26844 -118.98279,0.2551c-81.65808,-0.02749 -163.31604,-0.14871 -245.47412,-0.23169z" id="svg_20"/>
  <path fill="#003D85" d="m761.02551,144.99139c67.50263,-34.40027 142.07294,12.93407 150.59058,81.30222c3.56579,28.62131 -5.55603,54.26572 -23.68158,76.09824c-26.90607,32.40881 -61.76074,46.38348 -103.22784,36.75436c-41.91791,-9.73383 -69.06141,-37.15006 -78.86719,-78.89505c-9.81678,-41.79215 8.19037,-91.71668 55.18603,-115.25977m68.47302,106.88376c11.3805,-17.08529 0.23755,-40.673 -21.31011,-41.82069c-12.88709,-0.6864 -24.17725,7.91238 -27.33472,20.42065c-3.14539,12.46051 2.84137,25.16387 14.53699,30.84606c11.96795,5.81451 25.07434,2.37588 34.10784,-9.44602z" id="svg_21"/>
  <path fill="#003D85" d="m218.76376,323.26477c-30.23715,-23.96658 -46.43023,-54.41376 -44.71386,-93.17392c1.01576,-22.93907 11.05749,-42.51272 25.8892,-59.30406c27.11049,-30.69248 61.36959,-43.70343 101.47182,-33.84024c40.59247,9.98378 67.20105,36.69928 77.74466,77.23955c14.36404,55.2297 -26.31217,116.46096 -82.97623,126.85629c-28.2478,5.18222 -53.79298,-1.28659 -77.41559,-17.77762m42.70575,-108.35564c-1.60379,1.44934 -3.35595,2.7663 -4.78674,4.36998c-7.88425,8.83687 -8.88266,21.9123 -2.54523,32.06141c6.10584,9.77813 18.28317,14.87011 28.97104,11.97515c11.3931,-3.08596 18.56418,-10.45849 20.48877,-22.08841c1.78513,-10.78743 -2.05118,-19.89244 -11.01459,-26.16639c-9.8508,-6.89511 -20.22052,-6.82173 -31.11325,-0.15174z" id="svg_22"/>
  <path fill="#003D85" d="m544.91827,341.99924c-53.61428,-0.05448 -96.61282,-36.35996 -104.70437,-88.00095c-8.69559,-55.49628 27.54342,-105.96252 82.60104,-118.22972c60.0589,-13.38155 112.47168,33.61516 122.34418,84.92924c9.56811,49.73188 -28.90698,119.32599 -100.24085,121.30143m-7.95422,-79.04447c3.15485,-0.04483 6.38593,0.33686 9.45068,-0.21148c10.80414,-1.93305 19.73542,-11.74083 21.36518,-23.0246c1.59069,-11.0136 -4.19226,-22.34966 -14.06024,-27.56149c-10.04786,-5.30686 -22.40796,-3.89647 -30.66639,3.72818c-7.54846,6.9691 -10.60553,15.64759 -8.37146,25.73439c2.55567,11.53843 10.17896,18.28297 22.28223,21.335z" id="svg_23"/>
  <path fill="#00AE1A" d="m829.29358,252.17763c-8.82855,11.51942 -21.93494,14.95805 -33.90289,9.14354c-11.69562,-5.68219 -17.68238,-18.38555 -14.53699,-30.84606c3.15747,-12.50827 14.44763,-21.10705 27.33472,-20.42065c21.54766,1.14769 32.69061,24.7354 21.10516,42.12317z" id="svg_24"/>
  <path fill="#FC6A4E" d="m261.77222,214.70854c10.59002,-6.4694 20.95974,-6.54278 30.81054,0.35233c8.96341,6.27395 12.79972,15.37896 11.01459,26.16639c-1.92459,11.62992 -9.09567,19.00245 -20.48877,22.08841c-10.68787,2.89496 -22.8652,-2.19702 -28.97104,-11.97515c-6.33743,-10.14911 -5.33902,-23.22454 2.54523,-32.06141c1.43079,-1.60368 3.18295,-2.92064 5.08945,-4.57057z" id="svg_25"/>
  <path fill="#FC971F" d="m536.53027,262.90021c-11.66949,-2.99747 -19.29278,-9.74201 -21.84845,-21.28044c-2.23407,-10.0868 0.823,-18.76529 8.37146,-25.73439c8.25843,-7.62465 20.61853,-9.03504 30.66639,-3.72818c9.86798,5.21183 15.65093,16.54789 14.06024,27.56149c-1.62976,11.28377 -10.56104,21.09155 -21.36518,23.0246c-3.06475,0.54834 -6.29583,0.16665 -9.88446,0.15692z" id="svg_26"/>
 </g>

</svg>