<svg xmlns="http://www.w3.org/2000/svg" xml:space="preserve" width="2131" height="1936"><path fill="#003D85" d="M1986 1937c-612.704 0-1225.409 0-1838.757-.332-40.648-8.037-74.286-27.199-101.463-57.371-22.189-24.634-37.476-52.953-43.169-85.989-.2-1.16-1.059-2.208-1.611-3.308C1 1193.667 1 597.333 1.5 1.469 2 47.893 2 93.848 2 139.803c.797-.471.88-1.056 1.076-1.6 4.852-13.49 8.748-27.426 14.786-40.362C29.279 73.382 45.96 52.836 67.309 36.032c20.474-16.115 43.106-27.41 68.538-33.116.82-.184 1.44-1.257 2.153-1.916 619.038 0 1238.075 0 1857.516.389 5.359 1.928 10.349 3.366 15.264 5.024 31.87 10.748 58.968 28.562 80.62 54.464 18.923 22.639 32.59 47.891 38.685 76.977.17.813 1.256 1.435 1.915 2.146 0 546.37 0 1092.742-.37 1639.692-1.444 6.286-2.452 12.007-3.608 17.698-13.602 66.976-70.953 124.272-137.752 137.722-1.49.3-2.85 1.244-4.27 1.888M85.165 628.5c.11 42.16.286 84.321.306 126.482.014 28.16-.302 56.32-.288 84.48.07 136.82.271 273.64.288 410.46.012 96.155-.207 192.31-.302 288.466-.073 74.994-.074 149.989-.184 224.983-.07 47.462 32.617 77.295 66.592 87.714 14.071 4.315 28.666 3.835 43.115 3.844 45.814.028 91.628-.347 137.443-.395 34.322-.036 68.644.282 102.966.287 506.64.075 1013.279.12 1519.919.187 31.107.004 55.773-13.092 75.448-36.63 15.453-18.49 20.574-40.223 20.37-63.696-.29-33.317-.713-66.633-.802-99.95-.136-50.992-.057-101.985-.031-152.978.036-70.995.14-141.99.15-212.984.008-47.329-.105-94.658-.154-141.987-.06-60.328-.16-120.657-.154-180.985.01-91.494.05-182.987.17-274.48.082-63.155.322-126.31.485-189.465.018-6.85 0-6.855-6.705-6.853-194.156.055-388.312.116-582.467.164-456.305.114-912.61.221-1368.915.331-1.5 0-3.002-.038-4.499.026-.802.034-1.596.25-2.75.443V628.5M1650.5 412.59c130.652.086 261.304.172 391.956.255 6.707.005 7.087-.449 7.11-6.91.05-14.812.312-29.625.257-44.436-.23-62.983.127-125.979-1.078-188.944-.724-37.848-19.503-65.711-53.339-82.869-16.488-8.36-34.65-9.33-52.659-9.42-28.813-.145-57.63.656-86.446.695-106.823.144-213.646.164-320.47.18-54.827.008-109.654-.12-164.482-.137-84.993-.025-169.986-.019-254.979.001-25.83.007-51.66.115-77.49.158-55.81.092-111.62.26-167.43.224-35.307-.022-70.616-.568-105.923-.491-38.983.084-77.966.931-116.947.856-39.976-.076-79.95-1.068-119.926-1.277-28.82-.15-57.643.537-86.464.474-44.149-.096-88.296-.664-132.445-.746-28.317-.053-56.635.451-84.953.621-15.826.095-31.654-.062-47.48.035-30.172.186-54.869 11.985-74.046 35.272-14.292 17.355-18.853 37.95-19.026 59.715-.172 21.65.42 43.305.592 64.959.416 52.314.785 104.629 1.164 156.943.033 4.615.004 9.23.004 14.841l1564.5.001z"/><path fill="#FFF" d="M85.165 628V495.964c1.155-.193 1.949-.409 2.751-.443 1.497-.064 2.999-.026 4.499-.026 456.305-.11 912.61-.217 1368.915-.33 194.155-.049 388.311-.11 582.467-.165 6.705-.002 6.723.002 6.705 6.853-.163 63.155-.403 126.31-.486 189.464-.119 91.494-.159 182.987-.17 274.48-.006 60.33.094 120.658.155 180.986.049 47.33.162 94.658.155 141.987-.01 70.995-.115 141.99-.151 212.984-.026 50.993-.105 101.986.03 152.979.09 33.316.513 66.632.803 99.949.204 23.473-4.917 45.207-20.37 63.695-19.675 23.54-44.34 36.635-75.448 36.631-506.64-.067-1013.28-.112-1519.92-.187-34.321-.005-68.643-.323-102.965-.287-45.815.048-91.629.423-137.443.395-14.45-.009-29.044.471-43.115-3.844-33.975-10.42-66.661-40.252-66.592-87.714.11-74.994.11-149.989.184-224.983.095-96.156.314-192.311.302-288.467-.017-136.82-.218-273.64-.288-410.46-.014-28.159.302-56.319.288-84.479-.02-42.16-.196-84.321-.306-126.982m908.973 343.332c-69.138-38.628-138.301-77.213-207.4-115.91-22.939-12.845-45.613-26.163-68.61-38.9-10.571-5.856-21.981-9.93-34.314-9.279-34.483 1.823-60.547 28.07-61.871 62.568-.645 16.788-.415 33.614-.406 50.422.077 150.642.193 301.285.297 451.927.006 7.985-.202 15.977.041 23.955 1.59 52.15 56.835 78.553 97.001 54.942 55.48-32.612 112.634-62.367 168.93-93.6 88.026-48.836 175.948-97.86 263.88-146.863 16.709-9.311 33.364-18.73 49.849-28.43 7.862-4.625 13.806-11.333 18.431-19.3 13.43-23.13 6.698-61.463-21.186-77.383-13.723-7.834-27.64-15.326-41.44-23.023a171380.08 171380.08 0 0 1-163.202-91.126m863.365 773.75c15.518-9.535 21.015-23.862 19.375-41.344-1.922-20.493-16.926-36.294-37.352-37.806-12.524-.928-25.249.003-37.829.886-13.942.98-23.468 9.045-28.881 21.502-2.605 5.993-4.521 12.614-5.099 19.098-2.054 23.068 11.849 41.6 33.144 43.282 13.205 1.043 26.614.295 39.874-.547 5.455-.346 10.76-3.054 16.768-5.072m-1502.176-4.254c10.957-11.262 15.43-24.66 12.65-40.156-3.032-16.91-15.306-30.646-30.3-33.276-15.002-2.63-30.175-2.676-45.145.457-19.764 4.135-31.325 16.782-34.1 36.628-3.172 22.68 10.87 42.937 33.458 45.54 14.081 1.622 28.52.39 42.789.035 7.72-.192 14.52-3.29 20.648-9.228m464.265-47.734c-4.953-14.57-15.146-23.11-30.167-25.825-12.7-2.295-25.536-2.566-38.188-.083-18.8 3.69-32.127 13.892-36.746 33.383-4.44 18.739 5.03 48.708 34.843 50.385 14.519.817 29.216-.092 43.74-1.314 10.437-.88 17.957-7.41 22.882-16.605 6.693-12.494 7.513-25.633 3.636-39.941m903.532 3.341c-3.686-15.456-13.558-24.713-28.78-28.435-13.973-3.417-27.994-2.92-42.019-.148-24.81 4.903-37.86 21.773-35.242 46.62 1.784 16.933 10.632 36.353 36.849 37.189 13.069.416 26.288-.294 39.258-1.934 6.064-.767 12.547-3.894 17.364-7.78 14.458-11.664 16.612-27.49 12.57-45.512m-1276.011-28.978c-21.66 4.936-33.99 18.045-35.396 38.738-1.23 18.11 6.65 40.733 32.805 43.773 14.068 1.634 28.518.872 42.722-.002 5.63-.346 11.75-2.94 16.454-6.219 14.796-10.313 18.103-25.589 15.84-42.441-2.25-16.76-12.187-27.297-28.11-32.135-14.278-4.338-28.867-4.218-44.315-1.714m873.149 61.654c5.535 11.932 14.922 18.718 27.765 21.143 14.43 2.725 28.871 1.495 43.206-.208 5.41-.643 11.068-2.85 15.688-5.795 14.578-9.294 18.351-23.697 16.979-39.955-1.738-20.577-13.33-34.139-33.629-36.659-12.575-1.56-25.655-1.414-38.248.112-17.364 2.104-29.812 11.748-34.516 29.434-2.828 10.635-1.924 21.095 2.755 31.928m246.817-43.631c-6.9-11.396-16.65-19.027-30.199-19.234-13.073-.2-26.242.593-39.235 2.099-10.41 1.206-18.29 7.452-23.893 16.404-4.426 7.073-6.77 14.818-7.168 23.07-.91 18.9 7.294 41.553 35.933 43.237 10.59.622 21.267.315 31.878-.156 8.895-.395 17.4-2.582 24.688-8.25 15.751-12.248 20.164-38.286 7.996-57.17m-385.12 60.171c3.38 1.351 6.723 3.747 10.15 3.875 16.09.602 32.384 2.17 48.268.385 20.493-2.301 31.986-17.565 33.06-39.908.965-20.095-14.432-42.072-36.566-43.007-10.767-.454-21.585-.201-32.363.193-17.86.653-31.834 11.73-37.109 28.93-5.726 18.671-.006 38.747 14.56 49.532m-162.64-14.664c6.23 12.32 16.301 19.598 29.987 20.01 13.579.408 27.334.237 40.78-1.492 19.061-2.451 29.767-13.784 32.451-32.563 2.647-18.515-4.855-43.377-32.248-48.812-13.503-2.68-27.09-2.805-40.684-.246-16.956 3.191-27.57 13.468-32.317 29.63-3.215 10.946-2.702 22.049 2.031 33.473m-367.135 13.806c14.598-10.246 20.437-24.6 17.259-41.713-3.358-18.083-13.023-32.227-32.424-35.393-11.184-1.825-22.873-1.141-34.306-.75-29.976 1.028-42.511 29.095-39.805 49.124 2.677 19.815 15.132 33.06 34.876 34.976 8.254.801 16.61.805 24.917.736 10.052-.084 19.909-1.45 29.483-6.98m236.872-74.456c-17.418 9.06-24.967 23.972-24.08 42.97.782 16.713 9.154 35.18 33.725 37.222 12.55 1.044 25.275.58 37.89.042 8.838-.378 16.78-3.885 23.248-10.246 10.632-10.456 13.243-23.55 11.986-37.672-1.516-17.038-14.098-31.84-30.672-35.126-17.203-3.41-34.44-2.256-52.097 2.81z"/><path fill="#43CFFE" d="M1650 412.59H86c0-5.612.03-10.226-.004-14.84-.38-52.315-.748-104.63-1.164-156.944-.172-21.654-.764-43.309-.592-64.959.173-21.764 4.734-42.36 19.026-59.715 19.177-23.287 43.874-35.086 74.046-35.272 15.826-.097 31.654.06 47.48-.035 28.318-.17 56.636-.674 84.953-.621 44.149.082 88.296.65 132.445.746 28.821.063 57.645-.624 86.464-.474 39.976.209 79.95 1.2 119.926 1.277 38.981.075 77.964-.772 116.947-.856 35.307-.077 70.616.469 105.924.491 55.81.035 111.62-.132 167.43-.224 25.83-.043 51.66-.151 77.49-.158 84.992-.02 169.985-.026 254.978 0 54.828.015 109.655.144 164.483.136 106.823-.016 213.646-.036 320.47-.18 28.815-.039 57.632-.84 86.445-.696 18.009.09 36.171 1.06 52.66 9.421 33.835 17.158 52.614 45.02 53.338 82.87 1.205 62.964.848 125.96 1.078 188.943.055 14.811-.206 29.624-.258 44.436-.022 6.461-.402 6.915-7.109 6.91-130.652-.083-261.304-.17-392.456-.255m-154.5-121.986c81.658.082 163.316.204 244.974.231 39.661.014 79.322-.115 118.983-.255 9.824-.034 19.661-.1 29.468-.612 16.87-.883 28.93-10.067 32.516-24.709 6.025-24.597-10.91-50.525-37.519-50.315-32.81.259-65.625.013-98.438-.117-44.648-.176-89.296-.6-133.944-.644-62.326-.062-124.652.097-186.978.22-51.989.103-103.977.326-155.966.427-51.826.1-103.652.218-155.478.124-28.486-.052-56.972-.737-85.457-.748-28.745-.01-45.463 17.543-42.704 44.239 1.768 17.106 16.107 30.877 33.174 31.685 8.147.385 16.309.728 24.46.679 28.654-.172 57.306-.77 85.958-.755 60.987.033 121.974.409 182.96.53 47.664.096 95.328.02 143.991.02M760.683 145.139c-46.653 23.395-64.66 73.32-54.844 115.112 9.806 41.745 36.95 69.161 78.868 78.895 41.467 9.63 76.321-4.345 103.228-36.754 18.125-21.833 27.247-47.477 23.681-76.098-8.518-68.369-83.088-115.703-150.933-81.155M219.048 323.482c23.338 16.274 48.884 22.743 77.131 17.56 56.664-10.395 97.34-71.626 82.977-126.856-10.544-40.54-37.153-67.256-77.745-77.24-40.102-9.863-74.361 3.148-101.472 33.84-14.832 16.792-24.873 36.366-25.89 59.305-1.715 38.76 14.478 69.207 45 93.391M545.397 342c70.854-1.975 109.33-71.57 99.761-121.301-9.872-51.314-62.285-98.311-122.344-84.93-55.058 12.268-91.297 62.734-82.601 118.23 8.091 51.641 51.09 87.947 105.184 88z"/><path fill="#0099FD" d="M994.447 971.535a281789.553 281789.553 0 0 0 162.892 90.923c13.801 7.697 27.718 15.189 41.44 23.023 27.885 15.92 34.616 54.254 21.187 77.383-4.625 7.967-10.569 14.675-18.431 19.3-16.485 9.7-33.14 19.119-49.849 28.43-87.932 49.003-175.854 98.027-263.88 146.863-56.296 31.233-113.45 60.988-168.93 93.6-40.166 23.61-95.411-2.792-97-54.942-.244-7.978-.036-15.97-.042-23.955-.104-150.642-.22-301.285-.297-451.927-.009-16.808-.239-33.634.406-50.422 1.324-34.498 27.388-60.745 61.871-62.568 12.333-.652 23.743 3.423 34.315 9.278 22.996 12.738 45.67 26.056 68.608 38.901 69.1 38.697 138.263 77.282 207.71 116.113z"/><path fill="#013E85" d="M1857.185 1745.273c-5.69 1.826-10.995 4.534-16.45 4.88-13.26.842-26.67 1.59-39.874.547-21.295-1.682-35.198-20.214-33.144-43.282.578-6.484 2.494-13.105 5.099-19.098 5.413-12.457 14.94-20.523 28.881-21.502 12.58-.883 25.305-1.814 37.83-.886 20.425 1.512 35.429 17.313 37.351 37.806 1.64 17.482-3.857 31.809-19.693 41.535z"/><path fill="#013E86" d="M355.074 1741.08c-5.875 5.685-12.675 8.783-20.395 8.975-14.269.355-28.707 1.587-42.789-.035-22.588-2.603-36.63-22.86-33.458-45.54 2.775-19.846 14.336-32.493 34.1-36.628 14.97-3.133 30.143-3.087 45.145-.457 14.994 2.63 27.268 16.366 30.3 33.276 2.78 15.496-1.693 28.894-12.903 40.409z"/><path fill="#013E85" d="M819.725 1693.472c3.744 13.93 2.924 27.068-3.769 39.562-4.925 9.195-12.445 15.726-22.882 16.605-14.524 1.222-29.221 2.13-43.74 1.314-29.812-1.677-39.283-31.646-34.843-50.385 4.62-19.491 17.945-29.693 36.746-33.383 12.652-2.483 25.487-2.212 38.188.083 15.021 2.715 25.214 11.256 30.3 26.204zM1723.246 1696.83c3.92 17.626 1.766 33.452-12.692 45.116-4.817 3.886-11.3 7.013-17.364 7.78-12.97 1.64-26.19 2.35-39.258 1.934-26.217-.836-35.065-20.256-36.85-37.19-2.617-24.846 10.432-41.716 35.243-46.619 14.025-2.771 28.046-3.27 42.02.148 15.22 3.722 25.093 12.979 28.901 28.83zM447.521 1667.34c15.04-2.388 29.629-2.508 43.908 1.83 15.922 4.838 25.858 15.375 28.109 32.135 2.263 16.852-1.044 32.128-15.84 42.441-4.705 3.28-10.824 5.873-16.454 6.22-14.204.873-28.654 1.635-42.722 0-26.155-3.039-34.036-25.663-32.805-43.772 1.407-20.693 13.736-33.802 35.804-38.853z"/><path fill="#013E86" d="M1320.117 1728.756c-4.534-10.479-5.438-20.939-2.61-31.574 4.704-17.686 17.152-27.33 34.516-29.434 12.593-1.526 25.673-1.673 38.248-.112 20.3 2.52 31.891 16.082 33.629 36.659 1.372 16.258-2.401 30.661-16.98 39.955-4.62 2.945-10.278 5.152-15.687 5.795-14.335 1.703-28.776 2.933-43.206.208-12.843-2.425-22.23-9.211-27.91-21.497z"/><path fill="#013E85" d="M1567.282 1685.785c11.965 18.578 7.552 44.616-8.2 56.865-7.287 5.667-15.792 7.854-24.687 8.249-10.611.47-21.289.778-31.878.156-28.639-1.684-36.843-24.338-35.933-43.236.397-8.253 2.742-15.998 7.168-23.07 5.602-8.953 13.483-15.199 23.893-16.405 12.993-1.506 26.162-2.299 39.235-2.099 13.55.207 23.299 7.838 30.402 19.54zM1181.671 1745.423c-14.278-10.558-19.998-30.634-14.272-49.305 5.275-17.2 19.249-28.277 37.109-28.93 10.778-.394 21.596-.647 32.363-.193 22.134.935 37.531 22.912 36.565 43.007-1.073 22.343-12.566 37.607-33.06 39.908-15.883 1.784-32.176.217-48.268-.385-3.426-.128-6.768-2.524-10.437-4.102z"/><path fill="#013E86" d="M1019.176 1730.631c-4.59-11.07-5.103-22.172-1.888-33.117 4.747-16.163 15.361-26.44 32.317-29.631 13.595-2.559 27.181-2.434 40.684.246 27.393 5.435 34.895 30.297 32.248 48.812-2.684 18.78-13.39 30.112-32.451 32.563-13.445 1.729-27.201 1.9-40.78 1.492-13.686-.412-23.757-7.69-30.13-20.365zM651.856 1744.957c-9.246 5.364-19.103 6.73-29.155 6.815-8.306.069-16.663.065-24.917-.736-19.744-1.917-32.2-15.16-34.876-34.976-2.706-20.03 9.829-48.096 39.805-49.123 11.433-.392 23.122-1.076 34.306.75 19.401 3.165 29.066 17.31 32.424 35.392 3.178 17.113-2.661 31.467-17.587 41.878z"/><path fill="#013E85" d="M889.42 1670.198c17.293-4.928 34.53-6.082 51.733-2.672 16.574 3.285 29.156 18.088 30.672 35.126 1.257 14.121-1.354 27.216-11.986 37.672-6.467 6.361-14.41 9.868-23.249 10.246-12.614.539-25.34 1.002-37.89-.042-24.57-2.043-32.942-20.509-33.723-37.221-.888-18.999 6.66-33.912 24.443-43.109z"/><path fill="#FEFFFF" d="M1495 290.604c-48.163 0-95.827.077-143.49-.018-60.987-.122-121.974-.498-182.961-.53-28.652-.016-57.304.582-85.957.754-8.152.049-16.314-.294-24.46-.68-17.068-.807-31.407-14.578-33.175-31.684-2.76-26.696 13.96-44.249 42.704-44.239 28.485.01 56.97.696 85.457.748 51.826.094 103.652-.024 155.478-.124 51.99-.1 103.977-.324 155.966-.427 62.326-.123 124.652-.282 186.978-.22 44.648.044 89.296.468 133.944.644 32.813.13 65.628.376 98.438.117 26.609-.21 43.544 25.718 37.52 50.315-3.587 14.642-15.648 23.826-32.517 24.709-9.807.513-19.644.578-29.468.612-39.66.14-79.322.269-118.983.255-81.658-.027-163.316-.149-245.474-.232z"/><path fill="#003D85" d="M761.026 144.991c67.502-34.4 142.072 12.934 150.59 81.303 3.566 28.62-5.556 54.265-23.681 76.098-26.907 32.409-61.761 46.383-103.228 36.754-41.918-9.734-69.062-37.15-78.868-78.895-9.816-41.792 8.19-91.717 55.187-115.26m68.473 106.884c11.38-17.085.237-40.673-21.31-41.82-12.888-.687-24.178 7.912-27.335 20.42-3.146 12.46 2.841 25.164 14.537 30.846 11.968 5.815 25.074 2.376 34.108-9.446zM218.764 323.265c-30.237-23.967-46.43-54.414-44.714-93.174 1.016-22.94 11.057-42.513 25.89-59.304 27.11-30.693 61.369-43.704 101.47-33.84 40.593 9.983 67.202 36.699 77.746 77.24 14.364 55.229-26.313 116.46-82.977 126.855-28.247 5.183-53.793-1.286-77.415-17.777m42.706-108.356c-1.604 1.45-3.356 2.766-4.787 4.37-7.884 8.837-8.883 21.912-2.545 32.062 6.105 9.778 18.283 14.87 28.97 11.975 11.394-3.086 18.565-10.459 20.49-22.089 1.784-10.787-2.052-19.892-11.015-26.166-9.851-6.895-20.22-6.822-31.113-.152zM544.918 342c-53.614-.055-96.613-36.36-104.704-88.002-8.696-55.496 27.543-105.962 82.6-118.23 60.06-13.381 112.473 33.616 122.345 84.93 9.568 49.732-28.907 119.326-100.24 121.301m-7.955-79.044c3.155-.045 6.386.337 9.45-.212 10.805-1.933 19.736-11.74 21.366-23.024 1.59-11.014-4.192-22.35-14.06-27.562-10.048-5.307-22.408-3.896-30.667 3.728-7.548 6.97-10.605 15.648-8.371 25.735 2.555 11.538 10.179 18.283 22.282 21.335z"/><path fill="#00AE1A" d="M829.294 252.178c-8.829 11.519-21.935 14.958-33.903 9.143-11.696-5.682-17.683-18.385-14.537-30.846 3.157-12.508 14.447-21.107 27.334-20.42 21.548 1.147 32.691 24.735 21.106 42.123z"/><path fill="#FC6A4E" d="M261.772 214.709c10.59-6.47 20.96-6.543 30.81.352 8.964 6.274 12.8 15.379 11.015 26.166-1.924 11.63-9.095 19.003-20.488 22.089-10.688 2.895-22.866-2.197-28.971-11.975-6.338-10.15-5.34-23.225 2.545-32.062 1.43-1.604 3.183-2.92 5.09-4.57z"/><path fill="#FC971F" d="M536.53 262.9c-11.67-2.997-19.293-9.742-21.848-21.28-2.234-10.087.823-18.766 8.371-25.735 8.259-7.624 20.619-9.035 30.667-3.728 9.868 5.212 15.65 16.548 14.06 27.562-1.63 11.283-10.561 21.091-21.365 23.024-3.065.549-6.296.167-9.885.157z"/></svg>